<svg xmlns="http://www.w3.org/2000/svg" viewBox="0 0 24 24" fill="none">
  <!-- Base do ícone IF convertida para 24x24 -->
  <g transform="scale(0.115, 0.165)" fill="currentColor">
    <!-- Elementos principais convertidos -->
    <path d="M690 1441 c-8 -4 -33 -16 -55 -27 -78 -38 -108 -133 -67 -214 54 -108 213 -108 276 -1 25 44 25 117 0 161 -21 35 -71 70 -101 70 -10 0 -23 4 -28 9 -6 5 -17 6 -25 2z"/>
    <path d="M904 1407 c-2 -7 -3 -71 -2 -143 3 -129 3 -129 132 -132 86 -2 133 1 142 9 11 9 14 41 14 129 0 65 -3 125 -6 134 -5 14 -27 16 -140 16 -101 0 -136 -3 -140 -13z"/>
    <path d="M1237 1414 c-4 -4 -7 -65 -7 -134 0 -97 3 -130 14 -139 9 -8 56 -11 142 -9 129 3 129 3 129 143 0 140 0 140 -136 143 -74 1 -138 -1 -142 -4z"/>
    <path d="M571 1076 c-8 -9 -11 -56 -9 -142 3 -129 3 -129 143 -129 140 0 140 0 143 134 2 101 -1 136 -10 143 -7 4 -68 8 -134 8 -92 0 -124 -3 -133 -14z"/>
    <path d="M912 1082 c-9 -7 -12 -42 -10 -143 3 -134 3 -134 143 -134 140 0 140 0 143 129 2 86 -1 133 -9 142 -9 11 -41 14 -133 14 -66 0 -127 -4 -134 -8z"/>
    <path d="M567 744 c-10 -10 -8 -256 1 -272 7 -9 42 -12 143 -10 134 3 134 3 134 143 0 140 0 140 -136 143 -74 1 -138 -1 -142 -4z"/>
    <path d="M904 737 c-2 -7 -3 -71 -2 -143 3 -129 3 -129 132 -132 86 -2 133 1 142 9 11 9 14 41 14 129 0 65 -3 125 -6 134 -5 14 -27 16 -140 16 -101 0 -136 -3 -140 -13z"/>
    <path d="M1236 734 c-3 -8 -6 -69 -6 -134 0 -88 3 -120 14 -129 9 -8 56 -11 142 -9 129 3 129 3 129 143 0 140 0 140 -136 143 -118 2 -137 0 -143 -14z"/>
    <path d="M564 397 c-2 -7 -3 -69 -2 -138 3 -124 3 -124 143 -124 140 0 140 0 140 135 0 135 0 135 -138 138 -107 2 -139 0 -143 -11z"/>
    <path d="M904 397 c-2 -7 -3 -69 -2 -138 3 -124 3 -124 143 -124 140 0 140 0 140 135 0 135 0 135 -138 138 -107 2 -139 0 -143 -11z"/>
  </g>
</svg>
